<?xml version="1.0" encoding="utf-8"?>
<!-- Generator: Adobe Illustrator 27.0.0, SVG Export Plug-In . SVG Version: 6.00 Build 0)  -->
<svg version="1.1" id="Layer_1" xmlns="http://www.w3.org/2000/svg" xmlns:xlink="http://www.w3.org/1999/xlink" x="0px" y="0px"
	 viewBox="0 0 704.5 327.2" style="enable-background:new 0 0 704.5 327.2;" xml:space="preserve">
<style type="text/css">
	.st0{fill:#FFFFFF;}
	.st1{fill:#FFFFFF;}
</style>
<g>
	<g>
		<path class="st0" d="M90.6,207c-19.1,0-34.6,15.5-34.6,34.6c0,19.1,15.5,34.6,34.6,34.6s34.6-15.5,34.6-34.6
			C125.2,222.5,109.7,207,90.6,207z M90.6,260.7c-10.5,0-19-8.5-19-19c0-10.5,8.5-19,19-19s19,8.5,19,19
			C109.6,252.2,101.1,260.7,90.6,260.7z"/>
	</g>
</g>
<path class="st0" d="M75.9,142.7c-3-0.5-6.1,0-8.9,1.3c-2.7,1.3-6.3,2.7-8,1.6c-2.3-1.7-8.2-8-2.4-13.4c5.8-5.3,9.7-7.2,12-7.2
	s13.2-0.7,13.2-0.7s6.8-9.4,15.6-11s52.8-1.7,52.8-1.7s2.8,0.7,2.7-2.5c0,0-10.1-14.6,4.5-30.4c14.6-15.8,27.6-26.5,27.6-26.5
	s-35.5,2.3-61.9,12.4S75.8,98.4,72.4,104c-3.1,5.2-16,16.8-23.2,20.2c-1.8,0.8-3.3,2.2-4.1,3.9c-0.7,1.4-1.2,3.2-1,5.3
	c0.2,1.4,0,2.8-0.3,4.2c-1.1,5.1-3.7,15.8-6.3,20.9c-3.4,6.8-7.9,38.3-9.6,42.8c-1.5,4-5.3,19-4.4,30.6c0.2,2.6-0.1,5.1-1,7.5
	c-1.9,5.4-4.9,14.8-2.5,17.6c3.4,3.9,2.8,5.1,6.8,5.1s28.7,1.1,28.7,1.1s-14.1-31.5,8.4-51.2c22.5-19.7,46.7-3.9,46.7-3.9
	S131,218.3,131,251c0,0,9.2-18-4.9-39.6c-0.8-1.2-1.7-2.4-2.7-3.4c-1.9-2-14.4-15.2-49.3-13.8c0,0,4.5-7.3,25.3-4.5
	c20.8,2.8,24.8,4.5,36,5.1s24.2-1.1,32.7-7.3c0,0-24.2-3.9-52.4-25.3C97.2,147.8,83.3,143.8,75.9,142.7z M94.2,95.7
	c3.4-0.5,6.3,2.4,5.8,5.8c-0.3,2.1-2.1,3.9-4.2,4.2c-3.4,0.5-6.3-2.4-5.8-5.8C90.3,97.8,92,96.1,94.2,95.7z"/>
<path class="st1" d="M242.4,166.3c0.8,1.2,2.5,0.9,3-0.4c1-3.1,2.4-10.1,8.5-10.1h137.9c1,0,2-0.1,3-0.4c4.6-1.4,18.2-6.5,23.6-17.6
	c0.6-1.2-0.3-2.5-1.5-2.5H246.2c0,0-16,0.8-12.1,12.7C236.4,155,240.4,163.2,242.4,166.3z"/>
<path class="st1" d="M228.1,162.2c0.1,0.1,0.3,0,0.2-0.1c-2.2-5.3-15.1-38.1,3.9-38.2c19-0.1,163.3,0,186.7,0c2.9,0,5.8-0.3,8.6-0.9
	c10-2.1,31-8.8,38.3-28.7c0.4-1-0.4-2.2-1.5-2.2H239c-4.3,0-8.6,0.6-12.7,2C211.8,98.8,187.9,114.2,228.1,162.2z"/>
<path class="st1" d="M214.8,165.2c-8.1-11.1-43-63.4-0.4-83.4c7.1-3.3,14.8-4.9,22.7-4.9l237.5,0c0,0,26,0.8,46.9-31.6
	c0.7-1-0.1-2.4-1.3-2.4H220.6c-4,0-7.8,1.5-10.8,4.2l-42.7,39.2c0,0-13.5,11.8-0.6,26.7c11.2,13,40.5,44.4,48,52.4
	C214.7,165.6,214.9,165.4,214.8,165.2z"/>
<polygon class="st0" points="198.4,267.5 214.2,220.6 244.2,267.1 281.4,267.1 309.5,181.1 244.2,181.1 258.5,204.8 269.7,205.2 
	262.2,229.9 228.4,180.8 194.3,180.8 168,267.5 "/>
<path class="st0" d="M434.7,181.5H325c-3.4,0-6.4,2.2-7.3,5.4L296,257.6c-1.5,4.9,2.2,9.9,7.3,9.9h109c3.4,0,6.3-2.2,7.3-5.4
	l22.3-70.6C443.6,186.6,439.9,181.5,434.7,181.5z M392.9,244.6l-60.1,0.4l12.8-39.4H406L392.9,244.6z"/>
<polygon class="st0" points="428.9,267.5 460.4,267.5 470.6,235.9 485.2,235.6 508.1,267.5 544.9,267.1 516.4,223.6 571.9,181.1 
	531.8,181.5 493.1,213 479,212.7 488.6,180.8 455.6,180.8 "/>
<polygon class="st0" points="552,267.5 654.2,267.1 661.7,243.1 626.4,243.1 638.4,204.4 674.8,204.4 681.6,181.1 579.8,181.1 
	571.9,204.5 606.8,204.8 594.8,243.5 558.8,244.2 "/>
<rect x="517.9" y="303.7" class="st0" width="141.2" height="1.9"/>
<rect x="30.6" y="303.7" class="st0" width="141.2" height="1.9"/>
<g>
	<g>
		<path class="st0" d="M192.5,319.1v-28.9h6V315h13v4.1H192.5z"/>
		<path class="st0" d="M228.4,319.8c-4.4,0-7.9-1.4-10.5-4.1c-2.6-2.8-3.9-6.4-3.9-11c0-4.6,1.3-8.3,4-11.1
			c2.6-2.7,6.2-4.1,10.7-4.1c4.5,0,8,1.4,10.7,4.1c2.6,2.7,4,6.4,4,11c0,4.7-1.3,8.4-4,11.2C236.6,318.5,233,319.8,228.4,319.8z
			 M228.5,315.8c2.6,0,4.6-1,6.1-3s2.3-4.8,2.3-8.2c0-3.4-0.8-6.1-2.3-8.1c-1.5-2-3.5-3-6-3c-2.5,0-4.5,1-6,3s-2.3,4.7-2.3,8.1
			c0,3.4,0.7,6.1,2.2,8.1C224.1,314.8,226,315.8,228.5,315.8z"/>
		<path class="st0" d="M271.7,318.4c-3.6,0.9-6.7,1.4-9.4,1.4c-5,0-8.8-1.3-11.5-3.9s-4-6.4-4-11.3c0-4.9,1.3-8.6,4-11.2
			s6.5-3.9,11.4-3.9c3.2,0,6.3,0.4,9.4,1.1v4.7c-3.6-1.2-6.6-1.9-8.9-1.9c-3.1,0-5.4,1-7.1,2.9c-1.7,2-2.5,4.7-2.5,8.3
			c0,3.5,0.9,6.2,2.7,8.2c1.8,2,4.2,3,7.4,3c0.7,0,1.5-0.1,2.4-0.3V306h6V318.4z"/>
		<path class="st0" d="M278.5,319.1v-28.9h6v28.9H278.5z"/>
		<path class="st0" d="M290.1,318.8v-5c3.1,1.3,5.8,2,8,2c1.5,0,2.8-0.3,3.7-1s1.3-1.6,1.3-2.8c0-0.9-0.3-1.7-0.8-2.4
			s-1.6-1.4-3.2-2.3l-1.9-1.1c-2.6-1.5-4.4-2.9-5.5-4.2s-1.6-2.9-1.6-4.7c0-2.4,0.9-4.3,2.6-5.7s4.1-2.2,6.9-2.2
			c2.3,0,4.9,0.3,7.8,1v4.6c-3-1.1-5.3-1.7-7-1.7c-1.3,0-2.4,0.3-3.2,0.9s-1.2,1.4-1.2,2.3c0,0.8,0.3,1.5,0.8,2.1s1.6,1.3,3.2,2.2
			l2.1,1.2c2.8,1.6,4.7,3,5.8,4.3s1.6,2.9,1.6,4.8c0,2.7-1,4.8-3,6.3s-4.7,2.3-8.2,2.3C295.9,319.8,293.2,319.5,290.1,318.8z"/>
		<path class="st0" d="M321.8,319.1v-24.9h-10.4v-4h26.7v4h-10.4v24.9H321.8z"/>
		<path class="st0" d="M342.2,319.1v-28.9h6v28.9H342.2z"/>
		<path class="st0" d="M378.7,317.9c-2.8,1.2-6.1,1.9-10,1.9c-4.7,0-8.4-1.3-11.1-4c-2.6-2.7-4-6.4-4-11.2c0-4.9,1.3-8.6,4-11.2
			c2.7-2.6,6.5-3.9,11.4-3.9c3.2,0,6.3,0.4,9.4,1.1v4.7c-3.5-1.2-6.5-1.9-8.9-1.9c-3,0-5.4,1-7.1,2.9s-2.5,4.7-2.5,8.2
			c0,3.5,0.9,6.2,2.7,8.2s4.2,2.9,7.4,2.9c2.8,0,5.7-0.7,8.6-2.1V317.9z"/>
		<path class="st0" d="M382.3,318.8v-5c3.1,1.3,5.8,2,8,2c1.5,0,2.8-0.3,3.7-1s1.3-1.6,1.3-2.8c0-0.9-0.3-1.7-0.8-2.4
			s-1.6-1.4-3.2-2.3l-1.9-1.1c-2.6-1.5-4.4-2.9-5.5-4.2s-1.6-2.9-1.6-4.7c0-2.4,0.9-4.3,2.6-5.7s4.1-2.2,6.9-2.2
			c2.3,0,4.9,0.3,7.8,1v4.6c-3-1.1-5.3-1.7-7-1.7c-1.3,0-2.4,0.3-3.2,0.9s-1.2,1.4-1.2,2.3c0,0.8,0.3,1.5,0.8,2.1s1.6,1.3,3.2,2.2
			l2.1,1.2c2.8,1.6,4.7,3,5.8,4.3s1.6,2.9,1.6,4.8c0,2.7-1,4.8-3,6.3s-4.7,2.3-8.2,2.3C388.1,319.8,385.4,319.5,382.3,318.8z"/>
		<path class="st0" d="M420,319.1v-28.9h6V315h13v4.1H420z"/>
		<path class="st0" d="M450.4,319.1v-24.9h-10.4v-4h26.7v4h-10.4v24.9H450.4z"/>
		<path class="st0" d="M470.8,319.1v-28.9h12.4c4.5,0,7.9,1.2,10.3,3.6s3.6,5.8,3.6,10.3c0,4.8-1.3,8.5-3.8,11.1s-6.1,4-10.6,4
			H470.8z M476.9,315h4.5c3.2,0,5.5-0.9,7.1-2.6s2.3-4.4,2.3-8c0-2.8-0.6-5.1-1.9-6.9c-0.9-1.3-1.9-2.1-3.1-2.6s-3-0.7-5.3-0.7h-3.6
			V315z"/>
	</g>
</g>
</svg>
